<?xml version="1.0" encoding="UTF-8"?>
<!DOCTYPE svg PUBLIC "-//W3C//DTD SVG 1.1//EN" "http://www.w3.org/Graphics/SVG/1.1/DTD/svg11.dtd">
<!-- Creator: CorelDRAW 2017 -->
<svg xmlns="http://www.w3.org/2000/svg" xml:space="preserve" width="128px" height="128px" version="1.1" style="shape-rendering:geometricPrecision; text-rendering:geometricPrecision; image-rendering:optimizeQuality; fill-rule:evenodd; clip-rule:evenodd"
viewBox="0 0 128 128"
 xmlns:xlink="http://www.w3.org/1999/xlink">
 <defs>
  <style type="text/css">
   <![CDATA[
    .fil0 {fill:#C40E0E}
   ]]>
  </style>
 </defs>
 <g id="Warstwa_x0020_1">
  <metadata id="CorelCorpID_0Corel-Layer"/>
  <path class="fil0" d="M64 0.03c35.33,0 63.97,28.64 63.97,63.97 0,35.33 -28.64,63.97 -63.97,63.97 -35.33,0 -63.97,-28.64 -63.97,-63.97 0,-35.33 28.64,-63.97 63.97,-63.97zm0.13 80.95l-21.29 -49.92 -20.18 0 0 3.21c7.26,0.34 8.45,2.62 8.45,12.16l0 34.29c0,10.47 -1.35,11.91 -9.29,12.16l0 3.21 23.56 0 0 -3.21c-7.94,-0.25 -9.21,-1.6 -9.21,-12.75l0 -38.59 0.34 0 24.24 55.4 1.86 0 24.66 -55.4 0.84 0 0 39.18c0,10.47 -1.35,11.91 -9.29,12.16l0 3.21 27.36 0 0 -3.21c-7.93,-0.25 -9.2,-1.6 -9.2,-12.75l0 -33.11c0,-10.21 1.1,-12.49 8.36,-12.75l0 -3.21 -18.92 0 -21.96 49.92 -0.33 0z"/>
 </g>
</svg>
