<?xml version="1.0" encoding="UTF-8"?>
<!DOCTYPE svg PUBLIC "-//W3C//DTD SVG 1.1//EN" "http://www.w3.org/Graphics/SVG/1.1/DTD/svg11.dtd">
<!-- Creator: CorelDRAW 2017 -->
<svg xmlns="http://www.w3.org/2000/svg" xml:space="preserve" width="296px" height="70px" version="1.1" style="shape-rendering:geometricPrecision; text-rendering:geometricPrecision; image-rendering:optimizeQuality; fill-rule:evenodd; clip-rule:evenodd"
viewBox="0 0 296 69.89"
 xmlns:xlink="http://www.w3.org/1999/xlink">
 <defs>
  <style type="text/css">
   <![CDATA[
    .fil1 {fill:#161940}
    .fil0 {fill:#C40E0E}
    .fil2 {fill:#161940;fill-rule:nonzero}
   ]]>
  </style>
 </defs>
 <g id="Warstwa_x0020_1">
  <metadata id="CorelCorpID_0Corel-Layer"/>
  <g id="_372553449408">
   <path class="fil0" d="M39.53 23.37c10.13,0 18.34,8.21 18.34,18.34 0,10.13 -8.21,18.34 -18.34,18.34 -10.13,0 -18.34,-8.21 -18.34,-18.34 0,-10.13 8.21,-18.34 18.34,-18.34zm0.04 23.21l-6.1 -14.31 -5.79 0 0 0.92c2.08,0.1 2.42,0.75 2.42,3.49l0 9.83c0,3 -0.39,3.41 -2.66,3.48l0 0.92 6.75 0 0 -0.92c-2.27,-0.07 -2.64,-0.46 -2.64,-3.65l0 -11.07 0.1 0 6.95 15.89 0.53 0 7.07 -15.89 0.24 0 0 11.24c0,3 -0.38,3.41 -2.66,3.48l0 0.92 7.85 0 0 -0.92c-2.28,-0.07 -2.64,-0.46 -2.64,-3.65l0 -9.49c0,-2.93 0.31,-3.59 2.39,-3.66l0 -0.92 -5.42 0 -6.3 14.31 -0.09 0z"/>
   <path class="fil1" d="M39.53 19.92c5.16,0 9.35,-4.19 9.35,-9.35 0,-5.17 -4.19,-9.35 -9.35,-9.35 -5.16,0 -9.35,4.18 -9.35,9.35 0,5.16 4.19,9.35 9.35,9.35zm33.07 31.31c-4.46,-2.58 -10.19,-1.05 -12.77,3.42 -2.58,4.46 -1.04,10.2 3.42,12.77 4.46,2.58 10.33,1.05 12.91,-3.42 2.59,-4.49 0.89,-10.21 -3.56,-12.77zm-9.94 5.05c1.68,-2.91 5.4,-3.91 8.31,-2.23 2.91,1.69 4.04,5.41 2.36,8.32 -1.68,2.91 -5.54,3.9 -8.45,2.22 -2.91,-1.68 -3.9,-5.4 -2.22,-8.31zm-43.43 -1.63c-2.57,-4.47 -8.3,-6 -12.77,-3.42 -4.45,2.56 -6.15,8.28 -3.56,12.77 2.58,4.47 8.46,6 12.91,3.42 4.47,-2.57 6,-8.31 3.42,-12.77zm-11.14 -0.59c2.91,-1.69 6.64,-0.69 8.32,2.22 1.68,2.91 0.68,6.63 -2.23,8.31 -2.91,1.68 -6.77,0.69 -8.45,-2.22 -1.68,-2.91 -0.55,-6.63 2.36,-8.31zm31.44 -49.58c3.36,0 6.09,2.73 6.09,6.09 0,3.36 -2.73,6.08 -6.09,6.08 -3.36,0 -6.08,-2.72 -6.08,-6.08 0,-3.36 2.72,-6.09 6.08,-6.09z"/>
   <path class="fil2" d="M102.98 29.73c0.63,1.6 0.8,2.19 0.8,3.1 0,1.08 -0.76,1.5 -3.23,1.5l0 1.35 11.34 0 0 -1.35c-2.4,0 -3.17,-0.6 -5.29,-5.82l-7.9 -19.63 -1.5 0 -9.05 22.66c-0.8,1.99 -1.67,2.58 -3.79,2.82l0 1.32 8.46 0 0 -1.32c-1.92,0 -2.72,-0.42 -2.72,-1.7 0,-0.94 0.56,-2.86 2.16,-6.69l9.29 0 1.43 3.76zm11.29 33.26l1.65 -11.59 0.19 0 4.71 9.51 4.66 -9.51 0.19 0 1.67 11.59 -1.15 0 -1.13 -8.29 -4.1 8.29 -0.3 0 -4.15 -8.34 -1.12 8.34 -1.12 0zm100.44 -2.34l0.99 -0.59c0.69,1.27 1.49,1.91 2.4,1.91 0.39,0 0.76,-0.09 1.1,-0.27 0.35,-0.19 0.6,-0.43 0.78,-0.73 0.18,-0.3 0.27,-0.63 0.27,-0.97 0,-0.38 -0.13,-0.77 -0.39,-1.14 -0.37,-0.52 -1.03,-1.04 -2,-1.58 -0.96,-0.73 -1.56,-1.26 -1.79,-1.59 -0.41,-0.54 -0.62,-1.13 -0.62,-1.77 0,-0.51 0.12,-0.97 0.36,-1.38 0.24,-0.41 0.58,-0.74 1.02,-0.98 0.44,-0.24 0.92,-0.36 1.43,-0.36 0.54,0 1.05,0.14 1.53,0.41 0.47,0.27 0.97,0.77 1.5,1.5l-0.94 0.71c-0.43,-0.57 -0.8,-0.95 -1.11,-1.14 -0.31,-0.18 -0.64,-0.28 -1.01,-0.28 -0.46,0 -0.84,0.15 -1.14,0.43 -0.3,0.28 -0.44,0.63 -0.44,1.04 0,0.25 0.05,0.5 0.15,0.74 0.1,0.24 0.3,0.49 0.58,0.76 0.15,0.15 0.65,0.54 1.5,1.17 1,0.74 1.69,1.35 2.06,1.84 0.37,0.48 0.56,1.01 0.56,1.59 0,0.84 -0.32,1.57 -0.96,2.2 -0.64,0.62 -1.41,0.92 -2.32,0.92 -0.71,0 -1.35,-0.18 -1.93,-0.56 -0.57,-0.37 -1.1,-1 -1.58,-1.88zm-83.38 -9.25l6.65 0 0 1.14 -5.49 0 0 3.63 3.34 0 0 1.13 -3.34 0 0 4.54 5.44 0 0 1.15 -6.6 0 0 -11.59zm10.65 11.56l0 -11.59 2.4 0c1.73,0 2.99,0.14 3.78,0.42 1.12,0.39 2,1.08 2.63,2.05 0.63,0.97 0.95,2.13 0.95,3.47 0,1.16 -0.25,2.18 -0.75,3.07 -0.51,0.88 -1.16,1.53 -1.96,1.95 -0.8,0.42 -1.92,0.63 -3.36,0.63l-3.69 0zm1.11 -1.1l1.33 0c1.6,0 2.72,-0.1 3.34,-0.3 0.87,-0.28 1.56,-0.79 2.06,-1.53 0.5,-0.73 0.75,-1.64 0.75,-2.7 0,-1.12 -0.27,-2.08 -0.81,-2.87 -0.54,-0.79 -1.3,-1.33 -2.26,-1.63 -0.73,-0.22 -1.93,-0.33 -3.59,-0.33l-0.82 0 0 9.36zm12.43 -10.46l1.16 0 0 11.59 -1.16 0 0 -11.59zm10.26 -0.03l5.4 11.59 -1.23 0 -1.82 -3.82 -5 0 -1.81 3.82 -1.3 0 5.48 -11.59 0.28 0zm-0.14 2.46l-2 4.2 3.97 0 -1.97 -4.2zm6.72 -1.3l0 -1.13 6.36 0 0 1.13 -2.59 0 0 10.46 -1.18 0 0 -10.46 -2.59 0zm14.98 -1.33c1.75,0 3.21,0.59 4.39,1.76 1.18,1.17 1.77,2.61 1.77,4.33 0,1.69 -0.59,3.08 -1.76,4.17 -1.18,1.09 -2.61,1.63 -4.31,1.63 -1.72,0 -3.17,-0.58 -4.35,-1.76 -1.18,-1.17 -1.78,-2.5 -1.78,-3.99 0,-1.11 0.27,-2.14 0.81,-3.09 0.54,-0.96 1.27,-1.7 2.2,-2.24 0.93,-0.54 1.94,-0.81 3.03,-0.81zm0.04 1.14c-0.85,0 -1.66,0.22 -2.43,0.67 -0.77,0.44 -1.37,1.05 -1.79,1.8 -0.43,0.76 -0.64,1.6 -0.64,2.53 0,1.38 0.47,2.49 1.42,3.35 0.95,0.85 2.1,1.28 3.44,1.28 0.9,0 1.73,-0.22 2.5,-0.66 0.76,-0.43 1.36,-1.03 1.79,-1.78 0.43,-0.75 0.64,-1.5 0.64,-2.24 0,-0.92 -0.21,-1.75 -0.64,-2.49 -0.43,-0.75 -1.03,-1.35 -1.81,-1.79 -0.77,-0.45 -1.6,-0.67 -2.48,-0.67zm10.21 -0.94l2.31 0c1.29,0 2.16,0.06 2.62,0.16 0.68,0.16 1.24,0.49 1.67,1.01 0.44,0.52 0.66,1.16 0.66,1.91 0,0.64 -0.15,1.19 -0.45,1.67 -0.3,0.47 -0.72,0.83 -1.28,1.08 -0.55,0.25 -1.04,0.37 -1.44,0.37l3.32 5.39 -1.42 0 -3.32 -5.39 -1.51 0 0 5.39 -1.16 0 0 -11.59zm1.16 1.14l0 3.94 1.99 0.01c0.77,0 1.34,-0.07 1.72,-0.22 0.37,-0.14 0.66,-0.38 0.86,-0.7 0.21,-0.32 0.31,-0.69 0.31,-1.09 0,-0.38 -0.1,-0.74 -0.31,-1.05 -0.21,-0.32 -0.49,-0.55 -0.83,-0.69 -0.34,-0.13 -0.9,-0.2 -1.7,-0.2l-2.04 0zm25.76 -0.01l0 -1.13 6.36 0 0 1.13 -2.59 0 0 10.46 -1.19 0 0 -10.46 -2.58 0zm13.29 -1.16l5.39 11.59 -1.23 0 -1.82 -3.82 -5 0 -1.81 3.82 -1.29 0 5.47 -11.59 0.29 0zm-0.15 2.46l-2 4.2 3.97 0 -1.97 -4.2zm11.1 2.22l2.1 -1.74 0 1.38 -2.1 1.74 0 4.26 4.47 0 0 1.12 -5.62 0 0 -4.41 -1.6 1.33 0 -1.38 1.6 -1.34 0 -5.79 1.15 0 0 4.83zm7.11 -4.65l1.34 0 2.96 4.77 2.91 -4.77 1.34 0 -3.67 6.05 0 5.54 -1.14 0 0 -5.54 -3.74 -6.05zm-163.19 4.65l16.91 0c0.43,0 0.79,0.36 0.79,0.79l0 0c0,0.44 -0.36,0.79 -0.79,0.79l-16.91 0c-0.44,0 -0.79,-0.35 -0.79,-0.79l0 0c0,-0.43 0.35,-0.79 0.79,-0.79zm176.43 0l16.91 0c0.44,0 0.79,0.36 0.79,0.79l0 0c0,0.44 -0.35,0.79 -0.79,0.79l-16.91 0c-0.44,0 -0.79,-0.35 -0.79,-0.79l0 0c0,-0.43 0.35,-0.79 0.79,-0.79zm-172.07 -42.09l3.86 10.27 -7.93 0 4.07 -10.27zm23.95 14.24c-1.99,0 -3.31,-2.02 -3.31,-5.08 0,-3.03 1.29,-4.94 3.27,-4.94 1.99,0 3.13,1.84 3.13,4.97 0,3.17 -1.14,5.05 -3.09,5.05zm-1.92 4.07c-1.6,-0.1 -2.47,-0.42 -2.47,-1.15 0,-0.97 0.98,-1.25 3.8,-1.46 4.87,-0.35 7.37,-2.71 7.37,-6.61 0,-1.36 -0.24,-2.33 -0.83,-3.24 0.56,-0.38 1.15,-0.59 1.7,-0.59 1.15,0 1.33,1.08 2.62,1.08 0.8,0 1.39,-0.52 1.39,-1.29 0,-1.29 -1.08,-2.12 -2.75,-2.12 -1.05,0 -2.23,0.55 -3.8,1.84 -1.28,-1.18 -3.2,-1.84 -5.22,-1.84 -3.97,0 -6.85,2.61 -6.85,6.12 0,2.41 1.53,4.7 3.58,5.54l0 0.14c-2.05,0.31 -3.55,1.7 -3.55,3.34 0,1.91 1.39,3.06 3.97,3.34 1.25,0.14 4.04,0.45 6.23,0.77 1.7,0.24 3.17,1.56 3.17,3.41 0,2.43 -1.99,3.65 -5.96,3.65 -3.69,0 -5.81,-1.18 -5.81,-3.2 0,-1.39 0.87,-2.61 2.12,-2.89 -0.62,-0.49 -1.32,-0.73 -2.12,-0.73 -1.7,0 -3.1,1.53 -3.1,3.48 0,2.89 3.59,4.87 8.78,4.87 5.81,0 9.01,-2.12 9.01,-5.98 0,-3.1 -2.19,-5.33 -5.53,-5.82 -2.13,-0.31 -3.52,-0.48 -5.75,-0.66l0 0zm25.38 -4.14c0,3.17 -1.95,5.78 -4.35,5.78 -1.67,0 -2.79,-1.08 -2.79,-2.61 0,-2.06 1.81,-3.9 7.14,-5.92l0 2.75zm-5.01 -2.05c-4.22,1.81 -5.64,3.58 -5.64,5.81 0,2.47 1.81,4.11 4.7,4.11 2.57,0 4.83,-1.43 6.05,-3.69l0.18 0c0,2.36 1.01,3.72 3.02,3.72 1.64,0 3.31,-0.8 3.87,-1.88l-0.49 -0.83c-0.42,0.69 -1.08,0.76 -1.7,0.76 -1.05,0 -1.57,-1.29 -1.57,-3.97l0 -7.79c0,-3.97 -1.74,-5.43 -6.41,-5.43 -4.35,0 -6.82,1.29 -6.82,3.51 0,1.12 0.63,1.74 1.74,1.74 0.91,0 1.29,-0.34 1.81,-1.67 0.59,-1.81 1.05,-2.26 2.65,-2.26 2.47,0 3.62,1.36 3.62,4.25l0 1.42 -5.01 2.2zm15.62 -6.65l0 12.36c0,2.71 1.64,4.24 4.7,4.24 2.37,0 4.01,-0.94 4.67,-2.64l-0.87 -0.67c-0.77,1.15 -1.53,1.61 -2.68,1.61 -1.85,0 -2.4,-1.05 -2.4,-4.32l0 -10.58 4.66 0 0 -1.64 -4.66 0 0 -4.38 -1.01 0c-0.73,1.98 -2.02,3.27 -4.49,4.73l0 1.29 2.08 0zm21.83 8.7c0,3.17 -1.95,5.78 -4.35,5.78 -1.67,0 -2.79,-1.08 -2.79,-2.61 0,-2.06 1.81,-3.9 7.14,-5.92l0 2.75zm-5.01 -2.05c-4.22,1.81 -5.64,3.58 -5.64,5.81 0,2.47 1.81,4.11 4.7,4.11 2.57,0 4.83,-1.43 6.05,-3.69l0.18 0c0,2.36 1.01,3.72 3.03,3.72 1.63,0 3.3,-0.8 3.86,-1.88l-0.49 -0.83c-0.42,0.69 -1.08,0.76 -1.7,0.76 -1.05,0 -1.57,-1.29 -1.57,-3.97l0 -7.79c0,-3.97 -1.74,-5.43 -6.41,-5.43 -4.35,0 -6.82,1.29 -6.82,3.51 0,1.12 0.63,1.74 1.74,1.74 0.91,0 1.29,-0.34 1.81,-1.67 0.59,-1.81 1.05,-2.26 2.65,-2.26 2.47,0 3.62,1.36 3.62,4.25l0 1.42 -5.01 2.2zm46.88 1.42l-1.5 0c-0.83,5.43 -1.84,6.58 -6.61,6.58l-10.79 0 18.14 -25.06 0 -0.14 -21.2 0 -0.52 6.41 1.28 0c0.63,-3.62 2.13,-4.95 5.4,-4.95l9.54 0 -18.31 25.2 0 0.14 24.15 0 0.42 -8.18zm9.61 -10.61l-6.82 1.32 0 1.22c2.29,0 2.96,0.31 3.16,1.39 0.18,0.63 0.25,2.44 0.25,5.12l0 4.45c0,3.27 -0.52,3.94 -3.34,4.08l0 1.21 9.99 0 0 -1.21c-2.75,-0.11 -3.24,-0.74 -3.24,-4.32l0 -13.26zm-4 -7.07c0,1.22 0.94,2.16 2.15,2.16 1.22,0 2.16,-0.94 2.16,-2.16 0,-1.22 -0.94,-2.16 -2.16,-2.16 -1.21,0 -2.15,0.94 -2.15,2.16zm20.85 30.08c-1.22,1.25 -2.44,1.84 -3.31,1.84 -1.12,0 -1.78,-0.73 -1.78,-1.67 0,-1.25 1.26,-2.85 3.21,-4.04 2.85,-0.07 5.15,-1.18 7.13,-3.58l-1.08 -0.98c-1.74,1.92 -3.37,2.75 -5.29,2.75 -3.72,0 -6.16,-3.17 -6.16,-8 0,-0.63 0.04,-1.19 0.14,-1.57l11.45 0c0.94,0 1.08,-0.07 1.08,-0.7 0,-4.52 -2.61,-7.06 -7.07,-7.06 -5.6,0 -9.53,4.07 -9.53,9.78 0,4.94 2.89,8.46 7.27,9.19 -2.47,1.29 -3.9,3.1 -3.9,5.01 0,1.84 1.26,2.96 3.38,2.96 2.02,0 3.83,-0.73 5.46,-2.86l-1 -1.07zm-6.9 -16.85c0.6,-2.96 2.2,-4.49 4.67,-4.49 2.33,0 3.83,1.39 3.83,3.51 0,0.84 -0.21,0.98 -2.09,0.98l-6.41 0zm20.51 2.26c0,-1.81 0.27,-3.24 0.76,-4.21 0.8,-1.6 2.37,-2.58 4.25,-2.58 3.27,0 5.57,3.31 5.57,8.04 0,4.7 -2.2,7.84 -5.43,7.84 -3,0 -5.15,-2.51 -5.15,-5.99l0 -3.1zm-0.07 -18.52l-6.55 1.4 0 0.87c2.19,0.31 2.44,0.45 2.75,1.11 0.28,0.59 0.45,2.16 0.45,4.49l0 21.02 0.77 0 1.64 -2.33c1.46,1.67 3.93,2.72 6.54,2.72 5.08,0 8.98,-4.15 8.98,-9.61 0,-5.4 -3.86,-9.57 -8.88,-9.57 -2.33,0 -4.07,0.87 -5.57,2.82l-0.13 0 0 -12.92zm28.4 21.34c0,3.17 -1.95,5.78 -4.35,5.78 -1.67,0 -2.79,-1.08 -2.79,-2.61 0,-2.06 1.81,-3.9 7.14,-5.92l0 2.75zm-5.01 -2.05c-4.22,1.81 -5.64,3.58 -5.64,5.81 0,2.47 1.81,4.11 4.7,4.11 2.57,0 4.83,-1.43 6.05,-3.69l0.18 0c0,2.36 1.01,3.72 3.02,3.72 1.64,0 3.31,-0.8 3.87,-1.88l-0.49 -0.83c-0.42,0.69 -1.08,0.76 -1.7,0.76 -1.05,0 -1.57,-1.29 -1.57,-3.97l0 -7.79c0,-3.97 -1.74,-5.43 -6.41,-5.43 -4.35,0 -6.82,1.29 -6.82,3.51 0,1.12 0.63,1.74 1.74,1.74 0.91,0 1.29,-0.34 1.81,-1.67 0.59,-1.81 1.05,-2.26 2.65,-2.26 2.47,0 3.62,1.36 3.62,4.25l0 1.42 -5.01 2.2z"/>
  </g>
 </g>
</svg>
